# xmcd
#
# Track frame offsets:
#	150
#	18390
#	41120
#	67042
#	96450
#
# Disc length: 1861 seconds
#
# Revision: 0
# Processed by: cddbd v1.4PL0 Copyright (c) Steve Scherf et al.
# Submitted via: EasyCDDAExtractor 5.0.5.1
#
DISCID=43074305
DTITLE=Utada Hikaru - Colors
DYEAR=2003
DGENRE=R&B
TTITLE0=COLORS
TTITLE1=Simple And Clean
TTITLE2=Simple And Clean -PLANITb Remix-
TTITLE3=COLORS -Original Karaoke-
TTITLE4=Data
EXTD=
EXTT0=
EXTT1=
EXTT2=
EXTT3=
EXTT4=
PLAYORDER=
